<?xml version="1.0" encoding="UTF-8"?>
<svg width="163px" height="114px" viewBox="0 0 163 114" version="1.1" xmlns="http://www.w3.org/2000/svg" xmlns:xlink="http://www.w3.org/1999/xlink">
    <!-- Generator: Sketch 62 (91390) - https://sketch.com -->
    <title>Group 32</title>
    <desc>Created with Sketch.</desc>
    <defs>
        <polygon id="path-1" points="0.1239 0.779 64.4199 0.779 64.4199 84.0234 0.1239 84.0234"></polygon>
        <polygon id="path-3" points="0.0001 0.691 162.542 0.691 162.542 32 0.0001 32"></polygon>
        <polygon id="path-5" points="0 114 162.542 114 162.542 0.779 0 0.779"></polygon>
    </defs>
    <g id="連署頁" stroke="none" stroke-width="1" fill="none" fill-rule="evenodd">
        <g id="GP_終結碳mac1" transform="translate(-1109.000000, -1409.000000)">
            <g id="4" transform="translate(1048.000000, 1377.000000)">
                <g id="Group-32" transform="translate(61.000000, 31.000000)">
                    <polygon id="Fill-1" fill="#FFFDA9" points="102.1025 112.5003 95.5835 112.5003 99.0815 106.8133"></polygon>
                    <polygon id="Fill-2" fill="#FFFDA9" points="97.0186 102.93 133.4916 102.93 139.1846 112.5 102.1026 112.5"></polygon>
                    <g id="Group-31" transform="translate(0.000000, 0.221000)">
                        <path d="M112.6035,84.0234 L112.6035,60.6014 C112.6035,49.9044 104.6245,41.1584 94.3095,39.7614 C99.3385,35.8544 102.6305,29.8164 102.6305,22.9544 C102.6305,11.1584 93.0685,1.5954 81.2725,1.5954 C69.4755,1.5954 59.9135,11.1584 59.9135,22.9544 C59.9135,29.8164 63.2065,35.8544 68.2345,39.7614 C57.9195,41.1584 49.9405,49.9044 49.9405,60.6014 L49.9405,84.0234" id="Fill-3" fill="#FFE6CF"></path>
                        <g id="Group-7" transform="translate(49.000000, 0.000000)">
                            <mask id="mask-2" fill="white">
                                <use xlink:href="#path-1"></use>
                            </mask>
                            <g id="Clip-6"></g>
                            <path d="M64.4199,84.0234 L62.7869,84.0234 L62.7869,60.6014 C62.7869,50.5404 55.2269,41.9284 45.1999,40.5704 C44.8739,40.5264 44.6069,40.2914 44.5219,39.9734 C44.4359,39.6564 44.5489,39.3184 44.8089,39.1174 C49.8969,35.1644 52.8149,29.2734 52.8149,22.9544 C52.8149,11.6274 43.5999,2.4114 32.2729,2.4114 C20.9449,2.4114 11.7299,11.6274 11.7299,22.9544 C11.7299,29.2724 14.6479,35.1634 19.7349,39.1174 C19.9949,39.3184 20.1079,39.6564 20.0229,39.9734 C19.9379,40.2914 19.6699,40.5264 19.3439,40.5704 C9.3169,41.9284 1.7569,50.5404 1.7569,60.6014 L1.7569,84.0234 L0.1239,84.0234 L0.1239,60.6014 C0.1239,50.3214 7.4229,41.4424 17.3719,39.2624 C12.7279,35.0454 10.0969,29.1944 10.0969,22.9544 C10.0969,10.7264 20.0449,0.7784 32.2729,0.7784 C44.4999,0.7784 54.4469,10.7264 54.4469,22.9544 C54.4469,29.1944 51.8159,35.0464 47.1719,39.2624 C57.1209,41.4424 64.4199,50.3214 64.4199,60.6014 L64.4199,84.0234 Z" id="Fill-5" fill="#D37A1A" mask="url(#mask-2)"></path>
                        </g>
                        <polygon id="Fill-8" fill="#D37A1A" points="121.7529 10.8145 120.9289 9.4055 129.3339 4.4845 130.1579 5.8945"></polygon>
                        <polygon id="Fill-10" fill="#D37A1A" points="133.2559 29.376 123.5109 26.438 123.9819 24.875 133.7269 27.813"></polygon>
                        <polygon id="Fill-12" fill="#D37A1A" points="40.9219 11.4312 32.5169 6.5112 33.3409 5.1022 41.7459 10.0222"></polygon>
                        <polygon id="Fill-14" fill="#D37A1A" points="29.4189 29.9922 28.9479 28.4292 38.6929 25.4922 39.1639 27.0552"></polygon>
                        <g id="Group-18" transform="translate(0.000000, 82.000000)">
                            <mask id="mask-4" fill="white">
                                <use xlink:href="#path-3"></use>
                            </mask>
                            <g id="Clip-17"></g>
                            <path d="M161.2861,32 L136.6691,2.324 L25.7021,2.324 L1.2601,31.998 L0.0001,30.959 L24.6861,0.988 C24.8411,0.801 25.0721,0.691 25.3161,0.691 L137.0531,0.691 C137.2961,0.691 137.5261,0.8 137.6811,0.986 L162.5421,30.957 L161.2861,32 Z" id="Fill-16" fill="#D37A1A" mask="url(#mask-4)"></path>
                        </g>
                        <path d="M102.5938,111.4629 L137.7488,111.4629 L133.0278,103.5259 L98.3768,103.5259 L102.5938,111.4629 Z M139.1848,113.0959 L102.1028,113.0959 C101.8008,113.0959 101.5238,112.9289 101.3818,112.6619 L96.2978,103.0919 C96.1628,102.8389 96.1708,102.5339 96.3188,102.2879 C96.4668,102.0429 96.7328,101.8929 97.0188,101.8929 L133.4908,101.8929 C133.7798,101.8929 134.0458,102.0439 134.1938,102.2919 L139.8868,111.8619 C140.0358,112.1139 140.0388,112.4279 139.8948,112.6829 C139.7488,112.9389 139.4788,113.0959 139.1848,113.0959 L139.1848,113.0959 Z" id="Fill-19" fill="#D37A1A"></path>
                        <path d="M102.1025,113.0957 L95.5835,113.0957 C95.2885,113.0957 95.0155,112.9357 94.8715,112.6777 C94.7265,112.4197 94.7335,112.1037 94.8885,111.8517 L98.3855,106.1637 L99.7765,107.0197 L97.0445,111.4627 L102.1025,111.4627 L102.1025,113.0957 Z" id="Fill-21" fill="#D37A1A"></path>
                        <path d="M72.583,98.502 L70.95,98.484 C70.953,98.21 71.24,70.897 70.95,62.202 C70.645,53.04 76.922,48.749 77.188,48.57 L78.096,49.929 C77.859,50.088 72.309,53.924 72.583,62.148 C72.874,70.878 72.586,98.227 72.583,98.502" id="Fill-23" fill="#D37A1A"></path>
                        <path d="M81.666,48.0605 C81.666,49.9845 80.106,51.5435 78.183,51.5435 C76.259,51.5435 74.699,49.9845 74.699,48.0605 C74.699,46.1355 76.259,44.5765 78.183,44.5765 C80.106,44.5765 81.666,46.1355 81.666,48.0605" id="Fill-25" fill="#D37A1A"></path>
                        <path d="M78.1826,45.3926 C76.7116,45.3926 75.5156,46.5896 75.5156,48.0606 C75.5156,49.5316 76.7116,50.7276 78.1826,50.7276 C79.6536,50.7276 80.8496,49.5316 80.8496,48.0606 C80.8496,46.5896 79.6536,45.3926 78.1826,45.3926 M78.1826,52.3606 C75.8116,52.3606 73.8826,50.4316 73.8826,48.0606 C73.8826,45.6896 75.8116,43.7596 78.1826,43.7596 C80.5536,43.7596 82.4826,45.6896 82.4826,48.0606 C82.4826,50.4316 80.5536,52.3606 78.1826,52.3606" id="Fill-27" fill="#D37A1A"></path>
                        <mask id="mask-6" fill="white">
                            <use xlink:href="#path-5"></use>
                        </mask>
                        <g id="Clip-30"></g>
                        <polygon id="Fill-29" fill="#D37A1A" mask="url(#mask-6)" points="65.542 99.31 78.442 99.31 78.442 97.677 65.542 97.677"></polygon>
                    </g>
                </g>
            </g>
        </g>
    </g>
</svg>