<?xml version="1.0" encoding="UTF-8"?>
<svg width="80px" height="103px" viewBox="0 0 80 103" version="1.1" xmlns="http://www.w3.org/2000/svg" xmlns:xlink="http://www.w3.org/1999/xlink">
    <!-- Generator: Sketch 62 (91390) - https://sketch.com -->
    <title>Group 17</title>
    <desc>Created with Sketch.</desc>
    <defs>
        <polygon id="path-1" points="0.471093332 0.551606157 74.985 0.551606157 74.985 87.9497 0.471093332 87.9497"></polygon>
        <polygon id="path-3" points="0 0.904223225 12.2499055 0.904223225 12.2499055 14 0 14"></polygon>
    </defs>
    <g id="連署頁" stroke="none" stroke-width="1" fill="none" fill-rule="evenodd">
        <g id="GP_終結碳mac2" transform="translate(-690.000000, -2415.000000)">
            <g id="Group-17" transform="translate(690.000000, 2414.000000)">
                <polygon id="Fill-1" fill="#FFFDA9" points="6.1704 70.8285 29.6814 87.6985 79.2844 18.5705 55.7744 1.7015"></polygon>
                <g id="Group-16" transform="translate(0.000000, 0.449000)">
                    <g id="Group-4" transform="translate(5.000000, 0.000000)">
                        <mask id="mask-2" fill="white">
                            <use xlink:href="#path-1"></use>
                        </mask>
                        <g id="Clip-3"></g>
                        <path d="M2.1473,70.2197 L24.5213,86.2737 L73.3083,18.2817 L50.9353,2.2287 L2.1473,70.2197 Z M24.6803,87.9497 C24.5403,87.9497 24.3973,87.9067 24.2733,87.8187 L0.7623,70.9487 C0.6123,70.8407 0.5103,70.6767 0.4803,70.4927 C0.4503,70.3107 0.4943,70.1227 0.6023,69.9717 L50.2073,0.8437 C50.3143,0.6937 50.4783,0.5917 50.6623,0.5617 C50.8413,0.5297 51.0323,0.5747 51.1833,0.6837 L74.6933,17.5537 C75.0073,17.7787 75.0793,18.2157 74.8533,18.5307 L25.2503,87.6577 C25.1133,87.8487 24.8993,87.9497 24.6803,87.9497 L24.6803,87.9497 Z" id="Fill-2" fill="#D37A1A" mask="url(#mask-2)"></path>
                    </g>
                    <polygon id="Fill-5" fill="#D37A1A" points="14.1571 76.1113 13.0201 75.2953 62.6251 6.1663 63.7611 6.9823"></polygon>
                    <polygon id="Fill-7" fill="#D37A1A" points="22.617 82.1816 21.48 81.3656 71.085 12.2376 72.221 13.0536"></polygon>
                    <path d="M0.7,103 C0.554,103 0.409,102.954 0.287,102.865 C0.084,102.716 -0.024,102.47 0.005,102.22 L3.322,73.301 L4.713,73.461 L1.536,101.157 L27.241,89.612 L27.815,90.89 L0.987,102.938 C0.895,102.979 0.798,103 0.7,103" id="Fill-9" fill="#D37A1A"></path>
                    <polygon id="Fill-11" fill="#D37A1A" points="11.5497 97.4277 2.0417 90.6047 0.6997 102.2997"></polygon>
                    <g id="Group-15" transform="translate(0.000000, 89.000000)">
                        <mask id="mask-4" fill="white">
                            <use xlink:href="#path-3"></use>
                        </mask>
                        <g id="Clip-14"></g>
                        <path d="M2.6014,2.8682 L1.5364,12.1572 L10.1534,8.2872 L2.6014,2.8682 Z M0.7004,14.0002 C0.5534,14.0002 0.4094,13.9542 0.2874,13.8652 C0.0834,13.7162 -0.0246,13.4702 0.0044,13.2202 L1.3464,1.5242 C1.3744,1.2782 1.5314,1.0652 1.7584,0.9652 C1.9874,0.8622 2.2494,0.8922 2.4504,1.0362 L11.9574,7.8592 C12.1614,8.0052 12.2714,8.2492 12.2464,8.4982 C12.2214,8.7472 12.0654,8.9642 11.8364,9.0662 L0.9874,13.9382 C0.8954,13.9792 0.7974,14.0002 0.7004,14.0002 L0.7004,14.0002 Z" id="Fill-13" fill="#D37A1A" mask="url(#mask-4)"></path>
                    </g>
                </g>
            </g>
        </g>
    </g>
</svg>