<?xml version="1.0" encoding="UTF-8"?>
<svg width="121px" height="104px" viewBox="0 0 121 104" version="1.1" xmlns="http://www.w3.org/2000/svg" xmlns:xlink="http://www.w3.org/1999/xlink">
    <!-- Generator: Sketch 62 (91390) - https://sketch.com -->
    <title>Group 41</title>
    <desc>Created with Sketch.</desc>
    <defs>
        <polygon id="path-1" points="0 0.097 106.1279 0.097 106.1279 75 0 75"></polygon>
        <polygon id="path-3" points="0.354151711 0.294404997 18.461 0.294404997 18.461 21.3102 0.354151711 21.3102"></polygon>
    </defs>
    <g id="連署頁" stroke="none" stroke-width="1" fill="none" fill-rule="evenodd">
        <g id="GP_終結碳mac1" transform="translate(-1129.000000, -1073.000000)">
            <g id="2" transform="translate(1048.000000, 1054.000000)">
                <g id="Group-41" transform="translate(81.000000, 18.000000)">
                    <polygon id="Fill-1" fill="#FFFDA9" points="21.204 30.081 16.245 77.614 0.734 83.348 0.734 104.25 105.395 104.25 105.395 62.806 83.5 76.468 83.5 62.806 61.06 76.468 61.06 62.806 38.102 76.468 33.981 30.081"></polygon>
                    <g id="Group-40" transform="translate(0.000000, 0.250000)">
                        <path d="M22.4443,91.4058 L20.9773,91.4058 L20.9773,85.9098 C20.9773,85.5058 21.3053,85.1768 21.7113,85.1768 L26.1083,85.1768 L26.1083,86.6438 L22.4443,86.6438 L22.4443,91.4058 Z" id="Fill-2" fill="#D37A1A"></path>
                        <path d="M22.4443,102.3779 L20.9773,102.3779 L20.9773,96.8819 C20.9773,96.4779 21.3053,96.1489 21.7113,96.1489 L26.1083,96.1489 L26.1083,97.6159 L22.4443,97.6159 L22.4443,102.3779 Z" id="Fill-4" fill="#D37A1A"></path>
                        <path d="M34.627,91.4058 L33.16,91.4058 L33.16,85.9098 C33.16,85.5058 33.488,85.1768 33.894,85.1768 L38.29,85.1768 L38.29,86.6438 L34.627,86.6438 L34.627,91.4058 Z" id="Fill-6" fill="#D37A1A"></path>
                        <path d="M45.3789,91.4058 L43.9119,91.4058 L43.9119,85.9098 C43.9119,85.5058 44.2399,85.1768 44.6459,85.1768 L49.0419,85.1768 L49.0419,86.6438 L45.3789,86.6438 L45.3789,91.4058 Z" id="Fill-8" fill="#D37A1A"></path>
                        <path d="M55.7881,102.3779 L54.3211,102.3779 L54.3211,96.8819 C54.3211,96.4779 54.6491,96.1489 55.0551,96.1489 L59.4511,96.1489 L59.4511,97.6159 L55.7881,97.6159 L55.7881,102.3779 Z" id="Fill-10" fill="#D37A1A"></path>
                        <path d="M66.54,102.3779 L65.073,102.3779 L65.073,96.8819 C65.073,96.4779 65.401,96.1489 65.807,96.1489 L70.203,96.1489 L70.203,97.6159 L66.54,97.6159 L66.54,102.3779 Z" id="Fill-12" fill="#D37A1A"></path>
                        <path d="M34.627,102.3779 L33.16,102.3779 L33.16,96.8819 C33.16,96.4779 33.488,96.1489 33.894,96.1489 L38.29,96.1489 L38.29,97.6159 L34.627,97.6159 L34.627,102.3779 Z" id="Fill-14" fill="#D37A1A"></path>
                        <g id="Group-18" transform="translate(0.000000, 29.000000)">
                            <mask id="mask-2" fill="white">
                                <use xlink:href="#path-1"></use>
                            </mask>
                            <g id="Clip-17"></g>
                            <path d="M106.1279,75 L104.6609,75 L104.6609,34.878 L83.8879,47.84 C83.6629,47.98 83.3759,47.988 83.1449,47.859 C82.9109,47.73 82.7669,47.485 82.7669,47.218 L82.7669,34.861 L61.4399,47.845 C61.2159,47.982 60.9329,47.988 60.6999,47.857 C60.4699,47.728 60.3259,47.483 60.3259,47.218 L60.3259,34.846 L38.4769,47.848 C38.2609,47.978 37.9929,47.986 37.7679,47.871 C37.5429,47.756 37.3939,47.534 37.3709,47.283 L33.3109,1.564 L21.8649,1.564 L16.9749,48.44 C16.9449,48.717 16.7609,48.955 16.4989,49.051 L1.4669,54.609 L1.4669,75 L-0.0001,75 L-0.0001,54.099 C-0.0001,53.792 0.1909,53.518 0.4799,53.411 L15.5639,47.834 L20.4749,0.754 C20.5139,0.381 20.8289,0.097 21.2039,0.097 L33.9819,0.097 C34.3609,0.097 34.6779,0.387 34.7119,0.766 L38.7289,45.992 L60.6849,32.926 C60.9099,32.791 61.1919,32.788 61.4219,32.919 C61.6509,33.049 61.7929,33.292 61.7929,33.556 L61.7929,45.914 L83.1189,32.93 C83.3449,32.793 83.6279,32.788 83.8589,32.917 C84.0899,33.047 84.2329,33.291 84.2329,33.556 L84.2329,45.896 L105.0069,32.934 C105.2319,32.794 105.5179,32.786 105.7499,32.915 C105.9829,33.044 106.1279,33.29 106.1279,33.556 L106.1279,75 Z" id="Fill-16" fill="#D37A1A" mask="url(#mask-2)"></path>
                        </g>
                        <path d="M90.6982,26.4751 C89.3292,31.7501 84.6642,35.1051 80.2792,33.9661 C75.8932,32.8281 73.4492,27.6281 74.8182,22.3521 C76.1882,17.0771 80.8532,13.7231 85.2382,14.8611 C89.6242,15.9991 92.0682,21.1991 90.6982,26.4751" id="Fill-19" fill="#FFE6CF"></path>
                        <path d="M83.502,15.3726 C80.014,15.3726 76.631,18.2906 75.528,22.5366 C74.263,27.4136 76.477,32.2226 80.464,33.2566 C82.366,33.7496 84.403,33.3166 86.191,32.0306 C88.021,30.7156 89.369,28.6776 89.988,26.2906 C90.608,23.9046 90.422,21.4676 89.463,19.4286 C88.526,17.4356 86.961,16.0656 85.054,15.5706 C84.539,15.4366 84.019,15.3726 83.502,15.3726 M82.029,34.9236 C81.381,34.9236 80.733,34.8416 80.095,34.6756 C75.325,33.4376 72.64,27.8276 74.108,22.1686 C75.578,16.5096 80.654,12.9106 85.423,14.1516 C87.759,14.7576 89.665,16.4106 90.79,18.8046 C91.895,21.1526 92.113,23.9426 91.408,26.6596 C90.703,29.3756 89.154,31.7066 87.048,33.2216 C85.486,34.3436 83.755,34.9236 82.029,34.9236" id="Fill-21" fill="#D37A1A"></path>
                        <path d="M85.0889,21.7739 C84.6439,21.2129 84.2299,20.8769 83.5839,20.7779 C82.8369,20.6629 82.3649,20.9529 82.2589,21.6489 C82.0169,23.2179 85.9009,23.5699 85.4629,26.4039 C85.2499,27.7839 84.3189,28.6899 82.8219,28.7439 L82.5959,30.2109 L81.3429,30.0169 L81.5619,28.6009 C80.7159,28.3669 79.8029,27.8239 79.2259,27.1129 L80.2409,25.9879 C80.8539,26.6389 81.4759,27.0589 82.1959,27.1699 C83.0819,27.3069 83.5479,26.9769 83.6589,26.2559 C83.9229,24.5469 80.0529,24.1069 80.4599,21.4619 C80.6729,20.0829 81.6419,19.2609 83.0099,19.2119 L83.2359,17.7449 L84.4889,17.9379 L84.2669,19.3799 C85.1579,19.6479 85.7329,20.2029 86.1889,20.8559 L85.0889,21.7739 Z" id="Fill-23" fill="#D37A1A"></path>
                        <path d="M112.9893,13.3184 C111.6193,18.5944 106.9543,21.9484 102.5693,20.8104 C98.1833,19.6724 95.7393,14.4724 97.1083,9.1964 C98.4783,3.9204 103.1433,0.5664 107.5283,1.7044 C111.9143,2.8424 114.3583,8.0424 112.9893,13.3184" id="Fill-25" fill="#FFE6CF"></path>
                        <path d="M105.792,2.2163 C102.304,2.2163 98.921,5.1343 97.818,9.3803 C96.553,14.2573 98.767,19.0663 102.754,20.1003 C106.738,21.1333 111.014,18.0103 112.279,13.1343 C113.545,8.2583 111.331,3.4483 107.344,2.4143 C106.829,2.2803 106.31,2.2163 105.792,2.2163 M104.297,21.7633 C103.66,21.7633 103.02,21.6843 102.385,21.5193 C97.615,20.2813 94.93,14.6713 96.398,9.0123 C97.868,3.3533 102.943,-0.2447 107.713,0.9953 C112.482,2.2333 115.168,7.8433 113.699,13.5023 C112.425,18.4073 108.441,21.7633 104.297,21.7633" id="Fill-27" fill="#D37A1A"></path>
                        <path d="M107.3809,8.6157 C106.9359,8.0547 106.5219,7.7187 105.8769,7.6197 C105.1299,7.5047 104.6579,7.7937 104.5519,8.4907 C104.3099,10.0597 108.1929,10.4117 107.7549,13.2457 C107.5419,14.6247 106.6109,15.5317 105.1139,15.5847 L104.8879,17.0527 L103.6349,16.8587 L103.8539,15.4427 C103.0089,15.2087 102.0959,14.6657 101.5189,13.9547 L102.5339,12.8297 C103.1459,13.4797 103.7679,13.9007 104.4879,14.0117 C105.3749,14.1487 105.8409,13.8187 105.9519,13.0977 C106.2159,11.3887 102.3449,10.9477 102.7519,8.3037 C102.9649,6.9247 103.9339,6.1027 105.3019,6.0537 L105.5279,4.5867 L106.7809,4.7797 L106.5589,6.2217 C107.4499,6.4897 108.0249,7.0447 108.4819,7.6977 L107.3809,8.6157 Z" id="Fill-29" fill="#D37A1A"></path>
                        <path d="M119.3496,38.8652 C117.9796,44.1412 113.3146,47.4952 108.9296,46.3572 C104.5446,45.2192 102.0996,40.0192 103.4696,34.7432 C104.8386,29.4672 109.5036,26.1132 113.8886,27.2512 C118.2746,28.3892 120.7186,33.5892 119.3496,38.8652" id="Fill-31" fill="#FFE6CF"></path>
                        <g id="Group-35" transform="translate(102.000000, 26.000000)">
                            <mask id="mask-4" fill="white">
                                <use xlink:href="#path-3"></use>
                            </mask>
                            <g id="Clip-34"></g>
                            <path d="M10.1455,1.7622 C8.7215,1.7622 7.2835,2.2472 5.9765,3.1872 C4.1475,4.5022 2.7985,6.5412 2.1795,8.9272 C1.5595,11.3132 1.7465,13.7502 2.7055,15.7892 C3.6425,17.7832 5.2085,19.1522 7.1145,19.6472 C11.0985,20.6832 15.3745,17.5572 16.6395,12.6812 C17.9055,7.8042 15.6915,2.9952 11.7045,1.9612 C11.1915,1.8282 10.6695,1.7622 10.1455,1.7622 M8.6575,21.3102 C8.0205,21.3102 7.3805,21.2312 6.7455,21.0662 C4.4105,20.4602 2.5035,18.8082 1.3775,16.4132 C0.2745,14.0652 0.0545,11.2762 0.7595,8.5592 C1.4645,5.8422 3.0135,3.5122 5.1205,1.9962 C7.2685,0.4522 9.7355,-0.0648 12.0735,0.5422 C16.8425,1.7802 19.5285,7.3902 18.0595,13.0492 C16.7855,17.9552 12.8015,21.3102 8.6575,21.3102" id="Fill-33" fill="#D37A1A" mask="url(#mask-4)"></path>
                        </g>
                        <path d="M113.7412,34.1636 C113.2962,33.6026 112.8822,33.2666 112.2372,33.1666 C111.4902,33.0516 111.0182,33.3416 110.9112,34.0376 C110.6692,35.6066 114.5522,35.9596 114.1142,38.7936 C113.9012,40.1726 112.9712,41.0786 111.4732,41.1326 L111.2482,42.6006 L109.9952,42.4066 L110.2142,40.9896 C109.3682,40.7566 108.4552,40.2136 107.8782,39.5026 L108.8932,38.3766 C109.5052,39.0276 110.1272,39.4476 110.8472,39.5596 C111.7342,39.6956 112.2002,39.3666 112.3112,38.6446 C112.5752,36.9366 108.7042,36.4956 109.1122,33.8516 C109.3252,32.4726 110.2942,31.6496 111.6622,31.6016 L111.8872,30.1346 L113.1402,30.3276 L112.9192,31.7696 C113.8102,32.0366 114.3852,32.5916 114.8422,33.2456 L113.7412,34.1636 Z" id="Fill-36" fill="#D37A1A"></path>
                        <path d="M25.3896,21.7944 C25.3606,21.6474 24.6766,18.1514 26.8126,15.4834 C28.2726,13.6604 30.6496,12.7034 33.8786,12.6414 C34.6576,12.6264 35.4746,12.6184 36.3196,12.6104 C45.9136,12.5204 57.8546,12.4094 57.8546,2.1614 L59.3216,2.1614 C59.3216,13.8614 46.0356,13.9854 36.3326,14.0764 C35.4936,14.0844 34.6806,14.0914 33.9086,14.1074 C31.1336,14.1614 29.1316,14.9324 27.9566,16.4004 C26.2466,18.5374 26.8206,21.4724 26.8266,21.5014 L25.3896,21.7944 Z" id="Fill-38" fill="#D37A1A"></path>
                    </g>
                </g>
            </g>
        </g>
    </g>
</svg>