<?xml version="1.0" encoding="UTF-8"?>
<svg width="149px" height="117px" viewBox="0 0 149 117" version="1.1" xmlns="http://www.w3.org/2000/svg" xmlns:xlink="http://www.w3.org/1999/xlink">
    <!-- Generator: Sketch 62 (91390) - https://sketch.com -->
    <title>Group 15</title>
    <desc>Created with Sketch.</desc>
    <g id="連署頁" stroke="none" stroke-width="1" fill="none" fill-rule="evenodd">
        <g id="GP_終結碳mac1" transform="translate(-776.000000, -1071.000000)">
            <g id="1" transform="translate(690.000000, 1054.000000)">
                <g id="Group-15" transform="translate(86.000000, 17.000000)">
                    <polygon id="Stroke-1" stroke="#D37A1A" stroke-width="1.4" points="0.7 91.557 147.864 91.557 147.864 77.304 0.7 77.304"></polygon>
                    <polygon id="Fill-3" fill="#FFE6CF" points="1.0431 5.4327 0.7001 53.2997 21.3861 68.3087 42.0721 53.2997 42.0721 5.4327"></polygon>
                    <polygon id="Stroke-4" stroke="#D37A1A" stroke-width="1.4" stroke-linejoin="round" points="0.7 53.2996 1.043 5.4326 42.072 5.4326 42.072 53.2996 21.386 68.3086"></polygon>
                    <polygon id="Fill-6" fill="#FFFDA9" points="106.5771 15.7089 106.5771 63.5759 147.6071 63.5759 147.9491 15.7089 127.2631 0.6999"></polygon>
                    <polygon id="Stroke-7" stroke="#D37A1A" stroke-width="1.4" stroke-linejoin="round" points="147.9495 15.7093 147.6065 63.5763 106.5775 63.5763 106.5775 15.7093 127.2635 0.7003"></polygon>
                    <line x1="119.1444" y1="34.3953" x2="135.3834" y2="34.3953" id="Stroke-9" stroke="#D37A1A" stroke-width="1.4"></line>
                    <line x1="13.2093" y1="32.138" x2="29.4473" y2="32.138" id="Stroke-10" stroke="#D37A1A" stroke-width="1.4"></line>
                    <line x1="127.2635" y1="26.2757" x2="127.2635" y2="42.5147" id="Stroke-11" stroke="#D37A1A" stroke-width="1.4"></line>
                    <polygon id="Fill-12" fill="#FFE6CF" points="59.0004 116.0598 89.9224 116.0598 80.1224 107.1838 74.2824 101.8938"></polygon>
                    <polyline id="Stroke-13" stroke="#D37A1A" stroke-width="1.4" stroke-linejoin="round" points="74.2821 101.8939 59.0011 116.0599 89.9221 116.0599 80.1221 107.1839"></polyline>
                </g>
            </g>
        </g>
    </g>
</svg>