<?xml version="1.0" encoding="UTF-8"?>
<svg width="160px" height="161px" viewBox="0 0 160 161" version="1.1" xmlns="http://www.w3.org/2000/svg" xmlns:xlink="http://www.w3.org/1999/xlink">
    <!-- Generator: Sketch 62 (91390) - https://sketch.com -->
    <title>Group 39</title>
    <desc>Created with Sketch.</desc>
    <defs>
        <polygon id="path-1" points="0 161 159.554 161 159.554 0.542 0 0.542"></polygon>
    </defs>
    <g id="連署頁" stroke="none" stroke-width="1" fill="none" fill-rule="evenodd">
        <g id="GP_終結碳mac1" transform="translate(-751.000000, -1383.000000)">
            <g id="3" transform="translate(690.000000, 1377.000000)">
                <g id="Group-39" transform="translate(61.000000, 5.000000)">
                    <polyline id="Fill-1" fill="#FFE6CF" points="122.1563 70.3115 122.1563 43.2565 101.2313 43.2565 101.2313 24.1095 58.6453 24.1095 58.6453 43.2565 37.6703 43.2565 37.6703 70.3115"></polyline>
                    <g id="Group-38" transform="translate(0.000000, 0.458000)">
                        <path d="M122.8896,69.8535 L121.4226,69.8535 L121.4226,43.5325 L101.2316,43.5325 C100.8266,43.5325 100.4976,43.2035 100.4976,42.7985 L100.4976,24.3855 L59.3786,24.3855 L59.3786,42.7985 C59.3786,43.2035 59.0506,43.5325 58.6456,43.5325 L38.4036,43.5325 L38.4036,69.8535 L36.9366,69.8535 L36.9366,42.7985 C36.9366,42.3945 37.2646,42.0655 37.6696,42.0655 L57.9116,42.0655 L57.9116,23.6515 C57.9116,23.2475 58.2406,22.9185 58.6456,22.9185 L101.2316,22.9185 C101.6366,22.9185 101.9646,23.2475 101.9646,23.6515 L101.9646,42.0655 L122.1566,42.0655 C122.5616,42.0655 122.8896,42.3945 122.8896,42.7985 L122.8896,69.8535 Z" id="Fill-2" fill="#D37A1A"></path>
                        <path d="M67.9619,37.4512 L66.4949,37.4512 L66.4949,31.1822 C66.4949,30.7772 66.8229,30.4492 67.2289,30.4492 L72.2439,30.4492 L72.2439,31.9152 L67.9619,31.9152 L67.9619,37.4512 Z" id="Fill-4" fill="#D37A1A"></path>
                        <path d="M81.3506,37.4512 L79.8836,37.4512 L79.8836,31.1822 C79.8836,30.7772 80.2116,30.4492 80.6176,30.4492 L85.6326,30.4492 L85.6326,31.9152 L81.3506,31.9152 L81.3506,37.4512 Z" id="Fill-6" fill="#D37A1A"></path>
                        <path d="M49.0088,59.0771 L47.5418,59.0771 L47.5418,52.8071 C47.5418,52.4021 47.8698,52.0741 48.2758,52.0741 L53.2908,52.0741 L53.2908,53.5411 L49.0088,53.5411 L49.0088,59.0771 Z" id="Fill-8" fill="#D37A1A"></path>
                        <path d="M62.3975,59.0771 L60.9305,59.0771 L60.9305,52.8071 C60.9305,52.4021 61.2585,52.0741 61.6645,52.0741 L66.6795,52.0741 L66.6795,53.5411 L62.3975,53.5411 L62.3975,59.0771 Z" id="Fill-10" fill="#D37A1A"></path>
                        <path d="M92.9785,59.0771 L91.5115,59.0771 L91.5115,52.8071 C91.5115,52.4021 91.8395,52.0741 92.2455,52.0741 L97.2605,52.0741 L97.2605,53.5411 L92.9785,53.5411 L92.9785,59.0771 Z" id="Fill-12" fill="#D37A1A"></path>
                        <path d="M77.2129,2.4561 C77.2129,2.4561 83.6309,0.6111 86.4119,2.4561 C89.1919,4.3001 94.2129,1.6361 94.2129,1.6361 L94.7529,9.4821 C94.7529,9.4821 88.9609,12.1891 85.9839,10.4201 C83.0049,8.6501 80.0769,10.2651 80.0769,10.2651 L77.9179,11.0201" id="Fill-14" fill="#FFFDA9"></path>
                        <path d="M88.5693,11.6963 C87.5083,11.6963 86.4823,11.5093 85.6353,11.0063 C83.0233,9.4543 80.4313,10.8473 80.4063,10.8623 L80.3013,10.9083 L78.1423,11.6633 L77.6933,10.3773 L79.8043,9.6383 C80.2643,9.4033 83.2523,8.0053 86.3313,9.8343 C88.3403,11.0283 92.2413,9.8083 94.0403,9.0513 L93.6013,2.6743 C91.9243,3.3883 88.3733,4.5723 86.0353,3.0243 C83.9733,1.6563 79.1023,2.6223 77.4013,3.1113 L77.0243,1.8013 C77.2993,1.7223 83.7793,-0.1087 86.7893,1.8883 C88.7943,3.2183 92.5963,1.7223 93.8933,1.0343 L94.8203,0.5423 L95.4653,9.9013 L95.0413,10.0993 C94.8563,10.1853 91.5783,11.6963 88.5693,11.6963" id="Fill-16" fill="#D37A1A"></path>
                        <path d="M78.4863,23.6519 L77.0193,23.6519 L77.0193,2.4559 C77.0193,2.1289 77.2363,1.8419 77.5503,1.7519 C77.8263,1.6729 84.3293,-0.1641 87.3573,1.8449 C89.3413,3.1599 93.1203,1.6729 94.4093,0.9889 C94.6283,0.8719 94.8903,0.8749 95.1093,0.9949 C95.3263,1.1159 95.4673,1.3379 95.4843,1.5859 L96.0253,9.4319 C96.0463,9.7339 95.8793,10.0179 95.6043,10.1459 C95.3523,10.2629 89.4243,12.9939 86.1483,11.0499 C83.5643,9.5129 80.9953,10.8929 80.9713,10.9069 L80.2623,9.6229 C80.3983,9.5489 83.5973,7.8299 86.8983,9.7899 C88.8723,10.9629 92.7193,9.7719 94.5273,9.0179 L94.0943,2.7499 C92.3833,3.4709 88.8753,4.6129 86.5473,3.0669 C84.6823,1.8309 80.5003,2.5189 78.4863,3.0199 L78.4863,23.6519 Z" id="Fill-18" fill="#D37A1A"></path>
                        <mask id="mask-2" fill="white">
                            <use xlink:href="#path-1"></use>
                        </mask>
                        <g id="Clip-21"></g>
                        <polygon id="Fill-20" fill="#FFE6CF" mask="url(#mask-2)" points="35.162 146.08 63.653 146.08 63.653 112.754 35.162 112.754"></polygon>
                        <polygon id="Fill-22" fill="#FFE6CF" mask="url(#mask-2)" points="94.041 160.533 122.532 160.533 122.532 132.042 94.041 132.042"></polygon>
                        <path d="M64.4697,146.0801 L62.8367,146.0801 L62.8367,113.5701 L35.9787,113.5701 L35.9787,146.0801 L34.3457,146.0801 L34.3457,112.7541 C34.3457,112.3031 34.7107,111.9371 35.1617,111.9371 L63.6537,111.9371 C64.1047,111.9371 64.4697,112.3031 64.4697,112.7541 L64.4697,146.0801 Z" id="Fill-23" fill="#D37A1A" mask="url(#mask-2)"></path>
                        <path d="M123.3486,161 L121.7156,161 L121.7156,131.946 L94.8576,131.946 L94.8576,161 L93.2246,161 L93.2246,131.13 C93.2246,130.679 93.5896,130.313 94.0406,130.313 L122.5326,130.313 C122.9836,130.313 123.3486,130.679 123.3486,131.13 L123.3486,161 Z" id="Fill-24" fill="#D37A1A" mask="url(#mask-2)"></path>
                        <path d="M73.2666,123.4053 L71.6336,123.4053 L71.6336,95.1103 C71.6336,94.6593 71.9986,94.2943 72.4506,94.2943 L100.9416,94.2943 C101.3926,94.2943 101.7576,94.6593 101.7576,95.1103 L101.7576,122.7973 L100.1246,122.7973 L100.1246,95.9263 L73.2666,95.9263 L73.2666,123.4053 Z" id="Fill-25" fill="#D37A1A" mask="url(#mask-2)"></path>
                        <path d="M43.2764,126.207 L41.6434,126.207 L41.6434,120.603 C41.6434,120.151 42.0084,119.786 42.4604,119.786 L47.2064,119.786 L47.2064,121.419 L43.2764,121.419 L43.2764,126.207 Z" id="Fill-26" fill="#D37A1A" mask="url(#mask-2)"></path>
                        <path d="M43.2764,138.9766 L41.6434,138.9766 L41.6434,133.3726 C41.6434,132.9216 42.0084,132.5566 42.4604,132.5566 L47.2064,132.5566 L47.2064,134.1896 L43.2764,134.1896 L43.2764,138.9766 Z" id="Fill-27" fill="#D37A1A" mask="url(#mask-2)"></path>
                        <path d="M53.6377,126.207 L52.0047,126.207 L52.0047,120.603 C52.0047,120.151 52.3697,119.786 52.8217,119.786 L57.5687,119.786 L57.5687,121.419 L53.6377,121.419 L53.6377,126.207 Z" id="Fill-28" fill="#D37A1A" mask="url(#mask-2)"></path>
                        <path d="M102.5977,144.5986 L100.9647,144.5986 L100.9647,138.9946 C100.9647,138.5426 101.3297,138.1776 101.7817,138.1776 L106.5287,138.1776 L106.5287,139.8106 L102.5977,139.8106 L102.5977,144.5986 Z" id="Fill-29" fill="#D37A1A" mask="url(#mask-2)"></path>
                        <path d="M102.5977,157.3682 L100.9647,157.3682 L100.9647,151.7642 C100.9647,151.3122 101.3297,150.9472 101.7817,150.9472 L106.5287,150.9472 L106.5287,152.5802 L102.5977,152.5802 L102.5977,157.3682 Z" id="Fill-30" fill="#D37A1A" mask="url(#mask-2)"></path>
                        <path d="M112.959,144.5986 L111.326,144.5986 L111.326,138.9946 C111.326,138.5426 111.691,138.1776 112.143,138.1776 L116.89,138.1776 L116.89,139.8106 L112.959,139.8106 L112.959,144.5986 Z" id="Fill-31" fill="#D37A1A" mask="url(#mask-2)"></path>
                        <path d="M80.5166,109.1367 L78.8836,109.1367 L78.8836,103.5327 C78.8836,103.0817 79.2486,102.7167 79.7006,102.7167 L84.4466,102.7167 L84.4466,104.3497 L80.5166,104.3497 L80.5166,109.1367 Z" id="Fill-32" fill="#D37A1A" mask="url(#mask-2)"></path>
                        <path d="M90.0244,118.3574 L88.3914,118.3574 L88.3914,112.7534 C88.3914,112.3024 88.7564,111.9374 89.2084,111.9374 L93.9544,111.9374 L93.9544,113.5704 L90.0244,113.5704 L90.0244,118.3574 Z" id="Fill-33" fill="#D37A1A" mask="url(#mask-2)"></path>
                        <path d="M149.3799,109.0605 L148.4149,107.7445 C154.3669,103.3795 157.9209,96.3725 157.9209,89.0005 C157.9209,81.2735 154.0929,74.0735 147.6809,69.7425 L148.5949,68.3885 C155.4569,73.0245 159.5539,80.7295 159.5539,89.0005 C159.5539,96.8905 155.7509,104.3895 149.3799,109.0605" id="Fill-34" fill="#D37A1A" mask="url(#mask-2)"></path>
                        <path d="M144.1699,114.5908 C143.9529,114.5908 143.7439,114.5048 143.5909,114.3498 C143.4279,114.1858 143.3419,113.9598 143.3549,113.7298 L143.9469,102.9858 L145.5779,103.0748 L145.0349,112.9148 L153.9229,112.4888 L154.0009,114.1198 L144.2089,114.5898 C144.1959,114.5908 144.1829,114.5908 144.1699,114.5908" id="Fill-35" fill="#D37A1A" mask="url(#mask-2)"></path>
                        <path d="M10.1738,108.1074 C3.8028,103.4374 -0.0002,95.9384 -0.0002,88.0484 C-0.0002,79.7784 4.0968,72.0724 10.9588,67.4354 L11.8728,68.7894 C5.4608,73.1214 1.6328,80.3214 1.6328,88.0484 C1.6328,95.4194 5.1868,102.4264 11.1388,106.7914 L10.1738,108.1074 Z" id="Fill-36" fill="#D37A1A" mask="url(#mask-2)"></path>
                        <path d="M16.1563,73.4365 L14.5313,73.2685 L15.4463,64.4165 L5.5923,64.4165 L5.5923,62.7845 L16.3513,62.7845 C16.5833,62.7845 16.8023,62.8815 16.9583,63.0535 C17.1123,63.2255 17.1873,63.4555 17.1643,63.6845 L16.1563,73.4365 Z" id="Fill-37" fill="#D37A1A" mask="url(#mask-2)"></path>
                    </g>
                </g>
            </g>
        </g>
    </g>
</svg>